<svg xmlns="http://www.w3.org/2000/svg" width="64" height="64" viewBox="0 0 32 32" fill="none"><g clip-path="url(#a)"><g filter="url(#b)"><path d="M15.999 29.998c9.334 0 13.999-6.268 13.999-14 0-7.73-4.665-13.998-14-13.998C6.665 2 2 8.268 2 15.999s4.664 13.999 13.999 13.999" fill="url(#c)"/></g><path d="M15 14.5a4.5 4.5 0 1 1-9 0 4.5 4.5 0 0 1 9 0m11 0a4.5 4.5 0 1 1-9 0 4.5 4.5 0 0 1 9 0" fill="#fff"/><path d="M11 18a3 3 0 1 0 0-6 3 3 0 0 0 0 6" fill="url(#d)"/><path d="M21 18a3 3 0 1 0 0-6 3 3 0 0 0 0 6" fill="url(#e)"/><circle cx="29" cy="27" r="7" fill="url(#f)"/><g filter="url(#g)"><path fill-rule="evenodd" clip-rule="evenodd" d="M26.114 20.62A7 7 0 0 1 29 20a7 7 0 0 1 6.135 3.627 5.502 5.502 0 0 1-9.021-3.007" fill="#baa6ba"/></g><circle cx="32.5" cy="19.5" r="5.5" fill="url(#h)"/><g filter="url(#i)"><circle cx="32.5" cy="19.5" r="5.25" stroke="url(#j)" stroke-width=".5"/></g><circle cx="6" cy="28" r="8" fill="url(#k)"/><g filter="url(#l)"><path fill-rule="evenodd" clip-rule="evenodd" d="M10.84 29.218a4.5 4.5 0 1 1 8.467-3.026 8.5 8.5 0 1 1-8.467 3.026" fill="#ac8cc6"/></g><circle cx="15.5" cy="25.5" r="4.5" fill="url(#m)"/><circle cx=".5" cy="20.5" r="5.5" fill="url(#n)"/><g filter="url(#o)"><circle cx=".5" cy="20.5" r="5.25" stroke="url(#p)" stroke-width=".5"/></g><circle cx="19.5" cy="32.5" r="8.5" fill="url(#q)"/><circle cx="29" cy="4" r="7" fill="url(#r)"/><circle cx="6.5" cy="2.5" r="7.5" fill="url(#s)"/><g filter="url(#t)"><path fill-rule="evenodd" clip-rule="evenodd" d="M12.334 6.37A6.97 6.97 0 0 0 13.5 2.5a6.97 6.97 0 0 0-.947-3.518L11-.5c.667.5 1.9 2 1.5 4-.264 1.319-.252 2.275-.166 2.87" fill="#9a7fa9"/></g><g filter="url(#u)"><path fill-rule="evenodd" clip-rule="evenodd" d="M35.685 6.082a7.003 7.003 0 0 1-8.78 4.599 8.5 8.5 0 0 1 8.78-4.599" fill="#baa8c4"/></g><circle cx="36.5" cy="11.5" r="8.5" fill="url(#v)"/><circle opacity=".08" cx="36.5" cy="11.5" r="8.375" stroke="url(#w)" stroke-width=".25"/><g filter="url(#x)"><circle cx="36.5" cy="11.5" r="8.25" stroke="url(#y)" stroke-width=".5"/></g><circle cx="19.5" cy="-.5" r="6.5" fill="url(#z)"/><circle cx="-2" cy="10" r="7" fill="url(#A)"/><g opacity=".8" filter="url(#B)"><circle cx="3" cy="6" r="3" fill="#fff"/></g><g opacity=".8" filter="url(#C)"><ellipse cx="27.136" cy="29.507" rx="2" ry="3.525" transform="rotate(-15 27.136 29.507)" fill="#fff"/></g><g filter="url(#D)"><ellipse cx=".5" cy="26" rx="2.5" ry="1" fill="#ac84d3"/></g></g><defs><filter id="b" x="2" y="0" width="29.998" height="29.998" filterUnits="userSpaceOnUse" color-interpolation-filters="sRGB"><feFlood flood-opacity="0" result="BackgroundImageFix"/><feBlend in="SourceGraphic" in2="BackgroundImageFix" result="shape"/><feColorMatrix in="SourceAlpha" values="0 0 0 0 0 0 0 0 0 0 0 0 0 0 0 0 0 0 127 0" result="hardAlpha"/><feOffset dx="2" dy="-2"/><feGaussianBlur stdDeviation="2"/><feComposite in2="hardAlpha" operator="arithmetic" k2="-1" k3="1"/><feColorMatrix values="0 0 0 0 0 0 0 0 0 0 0 0 0 0 0 0 0 0 0.08 0"/><feBlend in2="shape" result="effect1_innerShadow_30_40"/></filter><filter id="g" x="24.114" y="18" width="13.021" height="9" filterUnits="userSpaceOnUse" color-interpolation-filters="sRGB"><feFlood flood-opacity="0" result="BackgroundImageFix"/><feBlend in="SourceGraphic" in2="BackgroundImageFix" result="shape"/><feGaussianBlur stdDeviation="1" result="effect1_foregroundBlur_30_40"/></filter><filter id="i" x="25.5" y="12.5" width="14" height="14" filterUnits="userSpaceOnUse" color-interpolation-filters="sRGB"><feFlood flood-opacity="0" result="BackgroundImageFix"/><feBlend in="SourceGraphic" in2="BackgroundImageFix" result="shape"/><feGaussianBlur stdDeviation=".75" result="effect1_foregroundBlur_30_40"/></filter><filter id="l" x="7" y="21" width="21" height="24" filterUnits="userSpaceOnUse" color-interpolation-filters="sRGB"><feFlood flood-opacity="0" result="BackgroundImageFix"/><feBlend in="SourceGraphic" in2="BackgroundImageFix" result="shape"/><feGaussianBlur stdDeviation="1" result="effect1_foregroundBlur_30_40"/></filter><filter id="o" x="-5.5" y="14.5" width="12" height="12" filterUnits="userSpaceOnUse" color-interpolation-filters="sRGB"><feFlood flood-opacity="0" result="BackgroundImageFix"/><feBlend in="SourceGraphic" in2="BackgroundImageFix" result="shape"/><feGaussianBlur stdDeviation=".25" result="effect1_foregroundBlur_30_40"/></filter><filter id="t" x="9" y="-3.018" width="6.5" height="11.387" filterUnits="userSpaceOnUse" color-interpolation-filters="sRGB"><feFlood flood-opacity="0" result="BackgroundImageFix"/><feBlend in="SourceGraphic" in2="BackgroundImageFix" result="shape"/><feGaussianBlur stdDeviation="1" result="effect1_foregroundBlur_30_40"/></filter><filter id="u" x="24.904" y="4" width="12.781" height="9" filterUnits="userSpaceOnUse" color-interpolation-filters="sRGB"><feFlood flood-opacity="0" result="BackgroundImageFix"/><feBlend in="SourceGraphic" in2="BackgroundImageFix" result="shape"/><feGaussianBlur stdDeviation="1" result="effect1_foregroundBlur_30_40"/></filter><filter id="x" x="26.5" y="1.5" width="20" height="20" filterUnits="userSpaceOnUse" color-interpolation-filters="sRGB"><feFlood flood-opacity="0" result="BackgroundImageFix"/><feBlend in="SourceGraphic" in2="BackgroundImageFix" result="shape"/><feGaussianBlur stdDeviation=".75" result="effect1_foregroundBlur_30_40"/></filter><filter id="B" x="-3" y="0" width="12" height="12" filterUnits="userSpaceOnUse" color-interpolation-filters="sRGB"><feFlood flood-opacity="0" result="BackgroundImageFix"/><feBlend in="SourceGraphic" in2="BackgroundImageFix" result="shape"/><feGaussianBlur stdDeviation="1.5" result="effect1_foregroundBlur_30_40"/></filter><filter id="C" x="21.999" y="23.063" width="10.274" height="12.889" filterUnits="userSpaceOnUse" color-interpolation-filters="sRGB"><feFlood flood-opacity="0" result="BackgroundImageFix"/><feBlend in="SourceGraphic" in2="BackgroundImageFix" result="shape"/><feGaussianBlur stdDeviation="1.5" result="effect1_foregroundBlur_30_40"/></filter><filter id="D" x="-4" y="23" width="9" height="6" filterUnits="userSpaceOnUse" color-interpolation-filters="sRGB"><feFlood flood-opacity="0" result="BackgroundImageFix"/><feBlend in="SourceGraphic" in2="BackgroundImageFix" result="shape"/><feGaussianBlur stdDeviation="1" result="effect1_foregroundBlur_30_40"/></filter><radialGradient id="c" cx="0" cy="0" r="1" gradientUnits="userSpaceOnUse" gradientTransform="rotate(123.93 6.854 9.426)scale(33.1436)"><stop stop-color="#f8a940"/><stop offset=".394" stop-color="#f48c50"/><stop offset="1" stop-color="#f70a8d"/></radialGradient><radialGradient id="f" cx="0" cy="0" r="1" gradientUnits="userSpaceOnUse" gradientTransform="matrix(0 8 -8 0 29 27)"><stop stop-color="#f4ecfd"/><stop offset="1" stop-color="#c3b7c1"/></radialGradient><radialGradient id="j" cx="0" cy="0" r="1" gradientUnits="userSpaceOnUse" gradientTransform="rotate(-56.31 36.456 -14.883)scale(4.66601)"><stop stop-color="#fff"/><stop offset="1" stop-color="#fff" stop-opacity="0"/></radialGradient><radialGradient id="m" cx="0" cy="0" r="1" gradientUnits="userSpaceOnUse" gradientTransform="matrix(-8 3 -3 -8 17.5 24)"><stop offset=".118" stop-color="#e9e1f0"/><stop offset="1" stop-color="#bba2d3"/></radialGradient><radialGradient id="p" cx="0" cy="0" r="1" gradientUnits="userSpaceOnUse" gradientTransform="matrix(-3 -3 2.0999 -2.0999 5.5 23.5)"><stop stop-color="#fff"/><stop offset="1" stop-color="#fff" stop-opacity="0"/></radialGradient><radialGradient id="r" cx="0" cy="0" r="1" gradientUnits="userSpaceOnUse" gradientTransform="matrix(-3.99992 10.50003 -17.75364 -6.76313 30 2)"><stop offset=".133" stop-color="#f4effb"/><stop offset="1" stop-color="#b499c0"/></radialGradient><radialGradient id="s" cx="0" cy="0" r="1" gradientUnits="userSpaceOnUse" gradientTransform="matrix(9.49993 13 -13 9.49993 4 -1)"><stop offset=".185" stop-color="#dddbe0"/><stop offset=".571" stop-color="#d4c3e1"/><stop offset=".82" stop-color="#b897cd"/></radialGradient><radialGradient id="w" cx="0" cy="0" r="1" gradientUnits="userSpaceOnUse" gradientTransform="matrix(4 -6 6 4 30.5 18)"><stop stop-color="#fff"/><stop offset="1" stop-color="#fff" stop-opacity="0"/></radialGradient><radialGradient id="y" cx="0" cy="0" r="1" gradientUnits="userSpaceOnUse" gradientTransform="matrix(4 -6 6 4 30.5 18)"><stop stop-color="#fff"/><stop offset="1" stop-color="#fff" stop-opacity="0"/></radialGradient><radialGradient id="z" cx="0" cy="0" r="1" gradientUnits="userSpaceOnUse" gradientTransform="matrix(-8 8 -8 -8 25 -.5)"><stop stop-color="#fffdff"/><stop offset=".556" stop-color="#d4cddb"/><stop offset="1" stop-color="#c1afd1"/></radialGradient><linearGradient id="d" x1="16.5" y1="11" x2="15.5" y2="18" gradientUnits="userSpaceOnUse"><stop stop-color="#553b3e"/><stop offset="1" stop-color="#3d2432"/></linearGradient><linearGradient id="e" x1="16.5" y1="11" x2="15.5" y2="18" gradientUnits="userSpaceOnUse"><stop stop-color="#553b3e"/><stop offset="1" stop-color="#3d2432"/></linearGradient><linearGradient id="h" x1="32.5" y1="14" x2="32.5" y2="25" gradientUnits="userSpaceOnUse"><stop stop-color="#bcb1c1"/><stop offset="1" stop-color="#c8b3df"/></linearGradient><linearGradient id="k" x1="6" y1="20" x2="6" y2="36" gradientUnits="userSpaceOnUse"><stop stop-color="#f0e2f0"/><stop offset="1" stop-color="#d4c4e4"/></linearGradient><linearGradient id="n" x1=".5" y1="16.179" x2="-3" y2="25.5" gradientUnits="userSpaceOnUse"><stop stop-color="#fcfbfd"/><stop offset="1" stop-color="#bc96e3"/></linearGradient><linearGradient id="q" x1="26" y1="30.5" x2="13" y2="34" gradientUnits="userSpaceOnUse"><stop stop-color="#fffcff"/><stop offset="1" stop-color="#d3c5e0"/></linearGradient><linearGradient id="v" x1="36.5" y1="3" x2="36.5" y2="20" gradientUnits="userSpaceOnUse"><stop stop-color="#ebe9ed"/><stop offset="1" stop-color="#bda7d3"/></linearGradient><linearGradient id="A" x1="-2" y1="4.5" x2="-2" y2="17" gradientUnits="userSpaceOnUse"><stop stop-color="#fcfbfd"/><stop offset="1" stop-color="#bc96e3"/></linearGradient><clipPath id="a"><path d="M0 4a4 4 0 0 1 4-4h24a4 4 0 0 1 4 4v24a4 4 0 0 1-4 4H4a4 4 0 0 1-4-4z" fill="#fff"/></clipPath></defs></svg>